# xmcd
#
# Track frame offsets:
#	150
#	24365
#	46040
#	71797
#	94655
#	121042
#	145492
#	167575
#	190740
#	215895
#
# Disc length: 3179 seconds
#
# Revision: 2379470203
# Processed by: cddbd v1.5.2PL0 Copyright (c) Steve Scherf et al.
# Submitted via: EZCDAudioConverter 8.0.2.1
#
DISCID=880c690a
DTITLE=Various Artist - Hai Đứa Nghèo
DYEAR=2001
DGENRE=
TTITLE0=Mạnh Quỳnh, Phi Nhung - Hai Đứa Nghèo
TTITLE1=Hoàng Lan, Mạnh Đình - Đính ước
TTITLE2=Phương Diễm Hạnh - Hoa đào năm trước
TTITLE3=Như Quỳnh, Thế Sơn - Sắc hoa màu nhớ
TTITLE4=Đặng Trường Phát - Tình cha
TTITLE5=Mạnh Quỳnh, Mạnh Đình - Trở về cát bụi
TTITLE6=Như Quỳnh - Trót dại
TTITLE7=Sơn Tuyền, Đặng Trường Phát - Nhật ký mùa đông
TTITLE8=Hoàng Lan - Biển dâu
TTITLE9=Đặng Trường Phát - Nhẫn cỏ cho em
EXTD=
EXTT0=
EXTT1=
EXTT2=
EXTT3=
EXTT4=
EXTT5=
EXTT6=
EXTT7=
EXTT8=
EXTT9=
PLAYORDER=
